<?xml version="1.0" encoding="UTF-8"?>
<svg version="1.1" xmlns="http://www.w3.org/2000/svg" width="150" height="150">
<path d="M0 0 C49.5 0 99 0 150 0 C150 49.5 150 99 150 150 C100.5 150 51 150 0 150 C0 100.5 0 51 0 0 Z " fill="#09333F" transform="translate(0,0)"/>
<path d="M0 0 C1.32 0.33 2.64 0.66 4 1 C1.71312588 9.46798228 -1.50287091 17.51840617 -4.8125 25.625 C-8.19521083 33.94230037 -11.51204861 42.27330236 -14.64370728 50.68873596 C-17.60424442 58.64272199 -20.64976974 66.56382491 -23.6965332 74.48510742 C-24.69823673 77.09042503 -25.69777632 79.69656663 -26.69726562 82.30273438 C-27.34361918 83.98442529 -27.99009889 85.66606772 -28.63671875 87.34765625 C-29.07741951 88.49778954 -29.07741951 88.49778954 -29.52702332 89.67115784 C-31.25613738 94.15927409 -33.07823154 98.59080911 -35 103 C-36.32 102.67 -37.64 102.34 -39 102 C-37.09608313 96.16191711 -35.06898867 90.39128119 -32.875 84.65625 C-32.42556786 83.47524719 -32.42556786 83.47524719 -31.96705627 82.27038574 C-30.98015848 79.6794427 -29.99025082 77.08966322 -29 74.5 C-28.4884285 73.15953613 -28.4884285 73.15953613 -27.96652222 71.79199219 C-21.87960036 55.84289618 -15.73085091 39.91775588 -9.5625 24 C-9.1404126 22.91017822 -8.7183252 21.82035645 -8.28344727 20.69750977 C-7.08731642 17.61036635 -5.88968204 14.5238114 -4.69140625 11.4375 C-4.33172256 10.50925415 -3.97203888 9.5810083 -3.60145569 8.62463379 C-3.27221603 7.77784058 -2.94297638 6.93104736 -2.60375977 6.05859375 C-2.17318016 4.94955688 -2.17318016 4.94955688 -1.73390198 3.81811523 C-1 2 -1 2 0 0 Z " fill="#25DD87" transform="translate(93,23)"/>
<path d="M0 0 C4.86364099 0.45285298 7.80252961 2.862772 11.4375 5.875 C12.68077551 6.87917135 13.92427148 7.88306981 15.16796875 8.88671875 C15.80138184 9.40282715 16.43479492 9.91893555 17.08740234 10.45068359 C20.11201159 12.90079469 23.18256991 15.2914001 26.25 17.6875 C31.8611489 22.09038307 37.44180629 26.53039262 43 31 C42.43484754 34.3224384 41.5920267 35.72608607 38.96484375 37.8125 C38.32788574 38.32490234 37.69092773 38.83730469 37.03466797 39.36523438 C36.34260254 39.90470703 35.65053711 40.44417969 34.9375 41 C34.2273877 41.56525391 33.51727539 42.13050781 32.78564453 42.71289062 C27.07361374 47.23224436 21.2663722 51.62815284 15.40600586 55.953125 C14.47413452 56.64148438 14.47413452 56.64148438 13.5234375 57.34375 C12.92885742 57.78203125 12.33427734 58.2203125 11.72167969 58.671875 C10.00652368 59.99496755 8.40532636 61.40257296 6.7890625 62.84375 C4 65 4 65 0 65 C0.26707748 61.83116177 1.03280926 60.97064435 3.44921875 58.80859375 C4.52127841 58.00826439 5.60130452 57.21853674 6.6875 56.4375 C7.87439349 55.55562288 9.06056658 54.67277554 10.24609375 53.7890625 C10.86339355 53.33305664 11.48069336 52.87705078 12.11669922 52.40722656 C15.20577627 50.09902847 18.22590042 47.70480316 21.25 45.3125 C22.41382289 44.39552914 23.57787961 43.47885496 24.7421875 42.5625 C25.29229492 42.129375 25.84240234 41.69625 26.40917969 41.25 C29.92787728 38.48515475 33.46313241 35.74154022 37 33 C33.44240399 29.30353872 29.69490042 26.06467799 25.625 22.9375 C24.39138396 21.9798659 23.1583318 21.02150508 21.92578125 20.0625 C21.28721191 19.56621094 20.64864258 19.06992187 19.99072266 18.55859375 C15.92392192 15.37457904 11.90728974 12.12719789 7.88720703 8.88452148 C5.31080904 6.81371634 2.7523135 4.83487567 0 3 C0 2.01 0 1.02 0 0 Z " fill="#26DF87" transform="translate(100,42)"/>
<path d="M0 0 C-0.26707748 3.16883823 -1.03280926 4.02935565 -3.44921875 6.19140625 C-4.52127841 6.99173561 -5.60130452 7.78146326 -6.6875 8.5625 C-7.87439349 9.44437712 -9.06056658 10.32722446 -10.24609375 11.2109375 C-10.86339355 11.66694336 -11.48069336 12.12294922 -12.11669922 12.59277344 C-15.20577627 14.90097153 -18.22590042 17.29519684 -21.25 19.6875 C-22.41382289 20.60447086 -23.57787961 21.52114504 -24.7421875 22.4375 C-25.29229492 22.870625 -25.84240234 23.30375 -26.40917969 23.75 C-29.92787728 26.51484525 -33.46313241 29.25845978 -37 32 C-33.44240399 35.69646128 -29.69490042 38.93532201 -25.625 42.0625 C-24.39138396 43.0201341 -23.1583318 43.97849492 -21.92578125 44.9375 C-21.28721191 45.43378906 -20.64864258 45.93007812 -19.99072266 46.44140625 C-15.92392192 49.62542096 -11.90728974 52.87280211 -7.88720703 56.11547852 C-5.31080904 58.18628366 -2.7523135 60.16512433 0 62 C0 62.99 0 63.98 0 65 C-4.86364099 64.54714702 -7.80252961 62.137228 -11.4375 59.125 C-12.68077551 58.12082865 -13.92427148 57.11693019 -15.16796875 56.11328125 C-15.80138184 55.59717285 -16.43479492 55.08106445 -17.08740234 54.54931641 C-20.11201159 52.09920531 -23.18256991 49.7085999 -26.25 47.3125 C-31.8611489 42.90961693 -37.44180629 38.46960738 -43 34 C-42.155958 29.23836485 -39.18033889 27.36614893 -35.5 24.5625 C-34.83943604 24.04679443 -34.17887207 23.53108887 -33.49829102 22.99975586 C-31.34110148 21.32126921 -29.172122 19.65910826 -27 18 C-26.24831543 17.42378906 -25.49663086 16.84757812 -24.72216797 16.25390625 C-21.75667097 13.98122325 -18.79109363 11.70887358 -15.8125 9.45336914 C-15.14089844 8.94410889 -14.46929687 8.43484863 -13.77734375 7.91015625 C-13.13522949 7.42434082 -12.49311523 6.93852539 -11.83154297 6.43798828 C-10.07547675 5.0592586 -8.4197644 3.60643611 -6.75390625 2.12109375 C-4 0 -4 0 0 0 Z " fill="#26DF88" transform="translate(52,42)"/>
</svg>
